<svg width="53" height="52" viewBox="0 0 53 52" fill="none" xmlns="http://www.w3.org/2000/svg">
<path d="M5.18803 9.14114C5.19195 8.57974 5.41655 8.04241 5.81333 7.64524C6.21011 7.24806 6.74721 7.02291 7.3086 7.01843H45.8208C46.9923 7.01843 47.9414 7.9697 47.9414 9.14114V43.3738C47.9375 43.9352 47.7129 44.4725 47.3161 44.8697C46.9193 45.2669 46.3822 45.492 45.8208 45.4965H7.3086C6.746 45.4959 6.20663 45.272 5.809 44.874C5.41138 44.476 5.18803 43.9364 5.18803 43.3738V9.14114ZM26.5647 32.6705C24.8639 32.6705 23.2327 31.9948 22.03 30.7921C20.8274 29.5895 20.1517 27.9583 20.1517 26.2575C20.1517 24.5566 20.8274 22.9254 22.03 21.7228C23.2327 20.5201 24.8639 19.8444 26.5647 19.8444C28.2656 19.8444 29.8967 20.5201 31.0994 21.7228C32.3021 22.9254 32.9777 24.5566 32.9777 26.2575C32.9777 27.9583 32.3021 29.5895 31.0994 30.7921C29.8967 31.9948 28.2656 32.6705 26.5647 32.6705ZM26.5647 36.9458C29.3995 36.9458 32.1181 35.8197 34.1225 33.8153C36.127 31.8108 37.2531 29.0922 37.2531 26.2575C37.2531 23.4227 36.127 20.7041 34.1225 18.6997C32.1181 16.6952 29.3995 15.5691 26.5647 15.5691C23.73 15.5691 21.0114 16.6952 19.0069 18.6997C17.0025 20.7041 15.8764 23.4227 15.8764 26.2575C15.8764 29.0922 17.0025 31.8108 19.0069 33.8153C21.0114 35.8197 23.73 36.9458 26.5647 36.9458ZM39.3907 11.2938V15.5691H43.6661V11.2938H39.3907Z" fill="#B3B3B3"/>
</svg>
