<svg width="52" height="52" viewBox="0 0 52 52" fill="none" xmlns="http://www.w3.org/2000/svg">
<g clip-path="url(#clip0_1_13)">
<path d="M34.6667 39V34.6667H36.8333C38.1791 34.6659 39.5061 34.3518 40.7094 33.7492C41.9127 33.1466 42.9591 32.2721 43.7657 31.1949C44.5724 30.1177 45.1171 28.8675 45.3567 27.5432C45.5963 26.219 45.5243 24.8572 45.1463 23.5656C44.7683 22.2741 44.0947 21.0883 43.1789 20.1022C42.2631 19.1162 41.1303 18.3569 39.8702 17.8846C38.61 17.4123 37.2572 17.24 35.9189 17.3812C34.5806 17.5224 33.2936 17.9734 32.1598 18.6983C31.6225 16.4095 30.4746 14.3092 28.8382 12.6211C27.2019 10.933 25.1383 9.72025 22.8674 9.11196C20.5964 8.50368 18.2029 8.52265 15.9418 9.16684C13.6808 9.81103 11.6367 11.0563 10.0273 12.7702C8.41792 14.484 7.3034 16.6022 6.80244 18.8993C6.30147 21.1963 6.43281 23.5862 7.18247 25.8145C7.93214 28.0429 9.27205 30.0262 11.0596 31.5533C12.8471 33.0805 15.0153 34.0943 17.3333 34.4868V38.8678C12.9591 38.3156 8.95957 36.1175 6.14873 32.7207C3.33789 29.3239 1.92695 24.9837 2.20302 20.5834C2.47909 16.183 4.42144 12.0532 7.63479 9.03437C10.8481 6.01552 15.091 4.33448 19.5 4.33333C22.5804 4.332 25.6054 5.15177 28.2636 6.70823C30.9218 8.26468 33.1171 10.5016 34.6233 13.1885C36.3975 12.883 38.2159 12.9494 39.9631 13.3834C41.7103 13.8174 43.3483 14.6096 44.7733 15.7097C46.1984 16.8099 47.3794 18.1941 48.2415 19.7745C49.1037 21.355 49.6281 23.0972 49.7817 24.891C49.9353 26.6847 49.7146 28.4908 49.1337 30.1948C48.5528 31.8988 47.6243 33.4636 46.407 34.79C45.1897 36.1164 43.7102 37.1755 42.0622 37.9002C40.4142 38.6249 38.6336 38.9994 36.8333 39H34.6667ZM22.1693 40.586L26 36.7553L29.8307 40.586C30.5881 41.3436 31.1038 42.3088 31.3127 43.3594C31.5216 44.4101 31.4142 45.4992 31.0042 46.4889C30.5942 47.4785 29.8999 48.3244 29.0092 48.9195C28.1185 49.5147 27.0713 49.8323 26 49.8323C24.9288 49.8323 23.8816 49.5147 22.9908 48.9195C22.1001 48.3244 21.4058 47.4785 20.9958 46.4889C20.5858 45.4992 20.4784 44.4101 20.6873 43.3594C20.8962 42.3088 21.412 41.3436 22.1693 40.586Z" fill="#B3B3B3"/>
</g>
<defs>
<clipPath id="clip0_1_13">
<rect width="52" height="52" fill="white"/>
</clipPath>
</defs>
</svg>
