<svg width="53" height="52" viewBox="0 0 53 52" fill="none" xmlns="http://www.w3.org/2000/svg">
<path d="M22.2317 39.1553H24.427V28.467H28.7024V39.1553H30.8978C31.1799 36.5859 32.4903 34.4653 34.6173 32.1502C34.8589 31.8894 36.3959 30.2968 36.5776 30.0702C38.0874 28.184 39.0337 25.9097 39.3076 23.5092C39.5815 21.1088 39.1718 18.6797 38.1258 16.5019C37.0797 14.324 35.4397 12.4859 33.3948 11.1993C31.3499 9.9126 28.9831 9.22968 26.567 9.22917C24.151 9.22865 21.7839 9.91056 19.7384 11.1964C17.6929 12.4822 16.0522 14.3196 15.0052 16.497C13.9582 18.6744 13.5475 21.1032 13.8203 23.5038C14.0932 25.9044 15.0386 28.1791 16.5476 30.066C16.7314 30.2947 18.2727 31.8894 18.51 32.1481C20.6391 34.4653 21.9495 36.5859 22.2317 39.1553ZM22.2894 43.4307V45.5683H30.84V43.4307H22.2894ZM13.2128 32.7423C11.1996 30.2269 9.93781 27.1939 9.57294 23.9928C9.20808 20.7916 9.75494 17.5525 11.1505 14.6485C12.5461 11.7446 14.7336 9.29396 17.4611 7.57893C20.1886 5.8639 23.3451 4.95425 26.567 4.95477C29.7889 4.95528 32.9451 5.86594 35.6721 7.58185C38.399 9.29775 40.5858 11.7491 41.9804 14.6535C43.3751 17.5579 43.9209 20.7972 43.555 23.9982C43.1891 27.1993 41.9264 30.2318 39.9123 32.7466C38.587 34.3969 35.1154 37.0177 35.1154 40.2242V45.5683C35.1154 46.7022 34.665 47.7897 33.8632 48.5915C33.0614 49.3932 31.9739 49.8437 30.84 49.8437H22.2894C21.1555 49.8437 20.068 49.3932 19.2663 48.5915C18.4645 47.7897 18.014 46.7022 18.014 45.5683V40.2242C18.014 37.0177 14.5403 34.3969 13.2128 32.7423Z" fill="#B3B3B3"/>
</svg>
