<svg width="53" height="53" viewBox="0 0 53 53" fill="none" xmlns="http://www.w3.org/2000/svg">
<path d="M26.5647 5.14868L35.6349 14.2188L32.6101 17.2415L26.5647 11.194L20.5194 17.2415L17.4946 14.2188L26.5647 5.14868ZM5.18803 26.5254L14.2582 17.4552L17.2808 20.48L11.2334 26.5254L17.2808 32.5707L14.2582 35.5955L5.18803 26.5254ZM47.9414 26.5254L38.8713 35.5955L35.8486 32.5707L41.8961 26.5254L35.8486 20.48L38.8713 17.4552L47.9414 26.5254ZM26.5647 30.8007C25.4308 30.8007 24.3434 30.3503 23.5416 29.5485C22.7398 28.7467 22.2894 27.6593 22.2894 26.5254C22.2894 25.3915 22.7398 24.304 23.5416 23.5023C24.3434 22.7005 25.4308 22.25 26.5647 22.25C27.6986 22.25 28.7861 22.7005 29.5878 23.5023C30.3896 24.304 30.8401 25.3915 30.8401 26.5254C30.8401 27.6593 30.3896 28.7467 29.5878 29.5485C28.7861 30.3503 27.6986 30.8007 26.5647 30.8007ZM26.5647 47.9021L17.4946 38.8319L20.5194 35.8093L26.5647 41.8567L32.6101 35.8093L35.6349 38.8319L26.5647 47.9021Z" fill="#B3B3B3"/>
</svg>
