<svg width="53" height="52" viewBox="0 0 53 52" fill="none" xmlns="http://www.w3.org/2000/svg">
<path d="M28.416 6.55434L48.7794 41.8259C48.967 42.1508 49.0658 42.5195 49.0658 42.8947C49.0658 43.2699 48.967 43.6386 48.7794 43.9635C48.5918 44.2885 48.322 44.5583 47.997 44.746C47.672 44.9336 47.3034 45.0324 46.9282 45.0324H6.2013C5.82607 45.0324 5.45745 44.9336 5.13249 44.746C4.80753 44.5583 4.53768 44.2885 4.35007 43.9635C4.16246 43.6386 4.06369 43.2699 4.06369 42.8947C4.06369 42.5195 4.16247 42.1508 4.35008 41.8259L24.7135 6.55434C24.9011 6.22939 25.171 5.95956 25.496 5.77196C25.8209 5.58436 26.1895 5.4856 26.5647 5.4856C26.94 5.4856 27.3086 5.58436 27.6335 5.77196C27.9585 5.95956 28.2283 6.22939 28.416 6.55434ZM9.90375 40.757H43.2257L26.5647 11.8985L9.90375 40.757ZM24.4271 34.344H28.7024V38.6194H24.4271V34.344ZM24.4271 19.3804H28.7024V30.0687H24.4271V19.3804Z" fill="#B3B3B3"/>
</svg>
