<svg width="53" height="52" viewBox="0 0 53 52" fill="none" xmlns="http://www.w3.org/2000/svg">
<path d="M30.0256 45.3004C29.8439 45.3004 29.7242 45.1785 29.7541 45.0289V7.0938C29.7541 6.97409 29.8439 6.85224 29.9957 6.85224H35.9491C38.5627 6.85224 41.0693 7.89049 42.9174 9.7386C44.7655 11.5867 45.8038 14.0933 45.8038 16.7069V35.4457C45.8038 38.0593 44.7655 40.5659 42.9174 42.414C41.0693 44.2621 38.5627 45.3004 35.9491 45.3004H30.0278H30.0256ZM37.3407 24.0819C35.1945 24.0819 33.4416 25.8347 33.4416 27.981C33.4416 30.1272 35.1945 31.8801 37.3407 31.8801C39.4869 31.8801 41.2398 30.1272 41.2398 27.981C41.2398 25.8347 39.4869 24.0819 37.3407 24.0819ZM13.3112 18.3657C13.3112 16.3713 14.9422 14.7402 16.9367 14.7402C18.9333 14.7402 20.5643 16.3713 20.5643 18.3657C20.5643 20.3623 18.9333 21.9934 16.9367 21.9934C15.9762 21.99 15.056 21.6069 14.3768 20.9277C13.6976 20.2486 13.3146 19.3284 13.3112 18.3679V18.3657ZM25.5814 6.82231C25.7631 6.82231 25.885 6.94416 25.855 7.0938V45.0011C25.855 45.1507 25.7332 45.2726 25.5814 45.2726H17.1804C15.8861 45.2726 14.6044 45.0176 13.4087 44.5222C12.2129 44.0268 11.1264 43.3008 10.2113 42.3854C9.2962 41.4701 8.57036 40.3835 8.07524 39.1876C7.58012 37.9918 7.32543 36.7101 7.32571 35.4158V16.677C7.32571 14.0634 8.36397 11.5568 10.2121 9.70867C12.0602 7.86057 14.5668 6.82231 17.1804 6.82231H25.5814ZM22.7704 42.1879V9.90483H17.1804C15.3655 9.90483 13.6746 10.6316 12.4027 11.8993C11.7654 12.5201 11.2603 13.2634 10.9175 14.0844C10.5748 14.9055 10.4016 15.7873 10.4082 16.677V35.4158C10.4082 37.2307 11.135 38.9216 12.4027 40.1913C13.0234 40.829 13.7665 41.3345 14.5876 41.6776C15.4086 42.0208 16.2905 42.1943 17.1804 42.1879H22.7704Z" fill="#B3B3B3"/>
</svg>
