<svg width="51" height="50" viewBox="0 0 51 50" fill="none" xmlns="http://www.w3.org/2000/svg">
<g clip-path="url(#clip0_1_9)">
<path d="M17 10.4167C17 8.20653 17.8955 6.08691 19.4896 4.52411C21.0837 2.96131 23.2457 2.08333 25.5 2.08333C27.7543 2.08333 29.9163 2.96131 31.5104 4.52411C33.1045 6.08691 34 8.20653 34 10.4167V21.3646C36.5988 23.1387 38.5523 25.6797 39.5762 28.6176C40.6 31.5556 40.6407 34.7373 39.6924 37.6995C38.7441 40.6617 36.8562 43.2499 34.3036 45.0874C31.751 46.9249 28.6668 47.9158 25.5 47.9158C22.3332 47.9158 19.249 46.9249 16.6964 45.0874C14.1438 43.2499 12.2559 40.6617 11.3076 37.6995C10.3593 34.7373 10.4 31.5556 11.4238 28.6176C12.4477 25.6797 14.4012 23.1387 17 21.3646V10.4167ZM19.431 24.7812C17.5741 26.0481 16.1781 27.863 15.4463 29.9616C14.7145 32.0602 14.685 34.3331 15.3621 36.4493C16.0393 38.5655 17.3877 40.4146 19.2111 41.7274C21.0345 43.0401 23.2377 43.748 25.5 43.748C27.7623 43.748 29.9655 43.0401 31.7889 41.7274C33.6123 40.4146 34.9607 38.5655 35.6379 36.4493C36.315 34.3331 36.2855 32.0602 35.5537 29.9616C34.8219 27.863 33.4259 26.0481 31.569 24.7812L29.75 23.5375V10.4167C29.75 9.3116 29.3022 8.25179 28.5052 7.47039C27.7082 6.68899 26.6272 6.25 25.5 6.25C24.3728 6.25 23.2918 6.68899 22.4948 7.47039C21.6978 8.25179 21.25 9.3116 21.25 10.4167V23.5375L19.431 24.7812ZM17 33.3333H34C34 35.5435 33.1045 37.6631 31.5104 39.2259C29.9163 40.7887 27.7543 41.6667 25.5 41.6667C23.2457 41.6667 21.0837 40.7887 19.4896 39.2259C17.8955 37.6631 17 35.5435 17 33.3333Z" fill="#B3B3B3"/>
</g>
<defs>
<clipPath id="clip0_1_9">
<rect width="51" height="50" fill="white"/>
</clipPath>
</defs>
</svg>
